<svg width="50" height="50" viewBox="0 0 50 50" fill="none" xmlns="http://www.w3.org/2000/svg">
<path d="M5.29711 4.92143H16.3455L19.9061 13.8243L14.185 17.6384C13.8481 17.8632 13.5719 18.1677 13.3809 18.5248C13.1899 18.8819 13.09 19.2807 13.09 19.6857C13.0974 19.917 13.09 19.6882 13.09 19.6882V19.7399C13.0913 19.8499 13.0962 19.9599 13.1048 20.0696C13.1179 20.273 13.1466 20.5437 13.1909 20.8816C13.2869 21.546 13.4714 22.4614 13.8307 23.5392C14.5541 25.7046 15.9715 28.5074 18.7323 31.2683C21.4932 34.0292 24.2959 35.4466 26.4588 36.1701C27.5391 36.5293 28.452 36.7114 29.1213 36.8099C29.4988 36.8647 29.8792 36.8976 30.2605 36.9083L30.2925 36.9107H30.3122C30.3122 36.9107 30.5878 36.896 30.3147 36.9107C30.7715 36.9105 31.2193 36.7831 31.6078 36.5427C31.9964 36.3024 32.3103 35.9586 32.5145 35.55L34.1632 32.2526L45.0787 34.0735V44.7038C39.8842 45.4543 25.8535 46.195 14.8297 35.171C3.80594 24.147 4.54414 10.1135 5.29711 4.92143ZM18.191 20.8816L22.6374 17.9189C23.5768 17.2924 24.2721 16.3618 24.6068 15.2834C24.9414 14.205 24.8951 13.0443 24.4755 11.996L20.9149 3.09312C20.5496 2.17996 19.919 1.39723 19.1045 0.845901C18.29 0.29457 17.329 -6.59311e-05 16.3455 1.10664e-08H5.16915C2.93241 1.10664e-08 0.828541 1.55271 0.461902 3.97898C-0.374724 9.4959 -1.50909 25.7908 11.3503 38.6505C24.2098 51.5102 40.5043 50.3733 46.0211 49.5391C48.4473 49.17 50 47.0686 50 44.8318V34.0735C50.0001 32.9085 49.587 31.7813 48.8341 30.8923C48.0812 30.0033 47.0373 29.4102 45.8882 29.2185L34.9727 27.4001C33.9346 27.2268 32.8682 27.3909 31.9302 27.8683C30.9921 28.3458 30.2319 29.1114 29.761 30.0527L28.9096 31.758C28.6088 31.6832 28.3108 31.597 28.0164 31.4996C26.4908 30.9927 24.3722 29.9494 22.2117 27.7889C20.0513 25.6284 19.0079 23.5097 18.501 21.9816C18.3815 21.6199 18.2789 21.2528 18.1935 20.8816H18.191Z" fill="#FF7E00"/>
</svg>
