<svg width="34" height="33" viewBox="0 0 34 33" fill="none" xmlns="http://www.w3.org/2000/svg">
<mask id="path-1-inside-1_50_388" fill="white">
<path d="M15.0849 22.2982C15.2098 22.5021 15.3739 22.6793 15.5678 22.8193C15.7616 22.9594 15.9814 23.0596 16.2142 23.1142C16.4471 23.1687 16.6884 23.1765 16.9243 23.1371C17.1602 23.0978 17.3859 23.012 17.5884 22.8847C17.7909 22.7575 17.9662 22.5913 18.104 22.3959C18.2418 22.2004 18.3395 21.9796 18.3914 21.7461C18.4433 21.5127 18.4483 21.2712 18.4062 21.0358C18.3641 20.8004 18.2758 20.5756 18.1462 20.3746L15.0849 22.2982ZM21.2895 32.1715C21.5473 32.5715 21.9524 32.8538 22.4169 32.957C22.8815 33.0602 23.368 32.9761 23.771 32.723C24.1739 32.4698 24.4608 32.0679 24.5693 31.6046C24.6779 31.1412 24.5993 30.6538 24.3508 30.248L21.2895 32.1715ZM0.807597 12.7382C0.752319 12.9713 0.743899 13.213 0.782826 13.4493C0.821754 13.6856 0.907251 13.9118 1.03435 14.1149C1.16146 14.3179 1.32763 14.4936 1.52322 14.6318C1.71881 14.77 1.93992 14.868 2.17371 14.9201C2.40749 14.9722 2.64929 14.9772 2.88505 14.9351C3.12082 14.8929 3.34586 14.8043 3.54709 14.6744C3.74832 14.5445 3.92173 14.3759 4.05726 14.1784C4.19278 13.9809 4.28772 13.7585 4.33655 13.524L0.807597 12.7382ZM32.0692 11.2292C32.5068 11.0647 32.8637 10.7369 33.0649 10.3148C33.266 9.89263 33.2958 9.40899 33.1479 8.96539C33 8.52179 32.686 8.15273 32.2718 7.93572C31.8577 7.7187 31.3755 7.67061 30.9266 7.80154L32.0692 11.2292ZM22.0777 26.6322C21.8199 26.2322 21.4148 25.95 20.9503 25.8468C20.4857 25.7435 19.9992 25.8276 19.5962 26.0808C19.1933 26.334 18.9064 26.7359 18.7979 27.1992C18.6893 27.6625 18.7678 28.15 19.0164 28.5558L22.0777 26.6322ZM11.621 2.10315L11.2378 5.92859L14.8366 6.29016L15.2175 2.46473L11.621 2.10315ZM13.4193 0.476077H12.7178V4.0918H13.4193V0.476077ZM1.54038 9.44308L0.807597 12.7382L4.33655 13.524L5.06933 10.2265L1.54038 9.44308ZM13.4193 4.0918H17.6858V0.476077H13.4193V4.0918ZM30.3095 11.8174L32.0692 11.2292L30.9266 7.80154L29.1669 8.38729L30.3095 11.8174ZM17.6858 4.0918C18.1004 4.0918 18.2161 4.0918 18.3077 4.09904L18.5656 0.49295C18.3125 0.476077 18.0426 0.476077 17.6858 0.476077V4.0918ZM24.6208 5.89243C24.534 5.54532 24.4713 5.28258 24.3918 5.04153L20.9544 6.16723C20.9834 6.25401 21.0123 6.36489 21.1135 6.76985L24.6208 5.89243ZM18.3077 4.09904C19.5298 4.18822 20.5712 5.00297 20.9544 6.16723L24.3918 5.04153C23.982 3.79056 23.2091 2.6899 22.1715 1.87983C21.1339 1.06976 19.8786 0.586957 18.5656 0.49295L18.3077 4.09904ZM12.7202 0.476077C10.9123 0.476077 9.39133 0.473667 8.1644 0.620707C6.88925 0.777388 5.72499 1.11485 4.70535 1.93442L6.96639 4.75469C7.2677 4.51364 7.68953 4.3208 8.60069 4.20992C9.55766 4.09421 10.8208 4.0918 12.7202 4.0918V0.476077ZM5.07174 10.2265C5.48394 8.37282 5.76114 7.14106 6.08415 6.23231C6.38787 5.36695 6.66749 4.99573 6.96639 4.75469L4.70535 1.93442C3.68331 2.75398 3.09997 3.8146 2.67331 5.02707C2.26353 6.19133 1.9357 7.67619 1.54038 9.44308L5.07174 10.2265ZM21.1135 6.76744C21.2292 7.23266 21.316 7.57977 21.4197 7.87867L24.8377 6.69272C24.7571 6.42849 24.6831 6.16157 24.6208 5.89243L21.1135 6.76744ZM29.1669 8.38729C28.6366 8.56325 28.4896 8.61146 28.3787 8.63798L29.2127 12.1573C29.5189 12.085 29.8563 11.9669 30.3095 11.8174L29.1669 8.38729ZM21.4197 7.87867C21.9581 9.4302 23.0534 10.7266 24.4932 11.5166C25.933 12.3067 27.6148 12.5365 29.2127 12.1573L28.3787 8.63798C27.6523 8.81071 26.8877 8.70519 26.233 8.34623C25.5783 7.98727 25.0803 7.39802 24.8353 6.69272L21.4197 7.87867ZM11.2378 5.92859C10.8424 9.8842 10.5821 12.2754 11.1269 14.5919L14.6462 13.7651C14.2726 12.1693 14.4172 10.4844 14.8366 6.29016L11.2378 5.92859ZM18.1462 20.3746C15.9045 16.8047 15.0222 15.3608 14.6462 13.7651L11.1269 14.5919C11.6717 16.9108 12.9709 18.9307 15.0873 22.2982L18.1462 20.3746ZM19.0188 28.5558L21.2895 32.1715L24.3532 30.248L22.0801 26.6322L19.0188 28.5558Z"/>
</mask>
<path d="M15.0849 22.2982C15.2098 22.5021 15.3739 22.6793 15.5678 22.8193C15.7616 22.9594 15.9814 23.0596 16.2142 23.1142C16.4471 23.1687 16.6884 23.1765 16.9243 23.1371C17.1602 23.0978 17.3859 23.012 17.5884 22.8847C17.7909 22.7575 17.9662 22.5913 18.104 22.3959C18.2418 22.2004 18.3395 21.9796 18.3914 21.7461C18.4433 21.5127 18.4483 21.2712 18.4062 21.0358C18.3641 20.8004 18.2758 20.5756 18.1462 20.3746L15.0849 22.2982ZM21.2895 32.1715C21.5473 32.5715 21.9524 32.8538 22.4169 32.957C22.8815 33.0602 23.368 32.9761 23.771 32.723C24.1739 32.4698 24.4608 32.0679 24.5693 31.6046C24.6779 31.1412 24.5993 30.6538 24.3508 30.248L21.2895 32.1715ZM0.807597 12.7382C0.752319 12.9713 0.743899 13.213 0.782826 13.4493C0.821754 13.6856 0.907251 13.9118 1.03435 14.1149C1.16146 14.3179 1.32763 14.4936 1.52322 14.6318C1.71881 14.77 1.93992 14.868 2.17371 14.9201C2.40749 14.9722 2.64929 14.9772 2.88505 14.9351C3.12082 14.8929 3.34586 14.8043 3.54709 14.6744C3.74832 14.5445 3.92173 14.3759 4.05726 14.1784C4.19278 13.9809 4.28772 13.7585 4.33655 13.524L0.807597 12.7382ZM32.0692 11.2292C32.5068 11.0647 32.8637 10.7369 33.0649 10.3148C33.266 9.89263 33.2958 9.40899 33.1479 8.96539C33 8.52179 32.686 8.15273 32.2718 7.93572C31.8577 7.7187 31.3755 7.67061 30.9266 7.80154L32.0692 11.2292ZM22.0777 26.6322C21.8199 26.2322 21.4148 25.95 20.9503 25.8468C20.4857 25.7435 19.9992 25.8276 19.5962 26.0808C19.1933 26.334 18.9064 26.7359 18.7979 27.1992C18.6893 27.6625 18.7678 28.15 19.0164 28.5558L22.0777 26.6322ZM11.621 2.10315L11.2378 5.92859L14.8366 6.29016L15.2175 2.46473L11.621 2.10315ZM13.4193 0.476077H12.7178V4.0918H13.4193V0.476077ZM1.54038 9.44308L0.807597 12.7382L4.33655 13.524L5.06933 10.2265L1.54038 9.44308ZM13.4193 4.0918H17.6858V0.476077H13.4193V4.0918ZM30.3095 11.8174L32.0692 11.2292L30.9266 7.80154L29.1669 8.38729L30.3095 11.8174ZM17.6858 4.0918C18.1004 4.0918 18.2161 4.0918 18.3077 4.09904L18.5656 0.49295C18.3125 0.476077 18.0426 0.476077 17.6858 0.476077V4.0918ZM24.6208 5.89243C24.534 5.54532 24.4713 5.28258 24.3918 5.04153L20.9544 6.16723C20.9834 6.25401 21.0123 6.36489 21.1135 6.76985L24.6208 5.89243ZM18.3077 4.09904C19.5298 4.18822 20.5712 5.00297 20.9544 6.16723L24.3918 5.04153C23.982 3.79056 23.2091 2.6899 22.1715 1.87983C21.1339 1.06976 19.8786 0.586957 18.5656 0.49295L18.3077 4.09904ZM12.7202 0.476077C10.9123 0.476077 9.39133 0.473667 8.1644 0.620707C6.88925 0.777388 5.72499 1.11485 4.70535 1.93442L6.96639 4.75469C7.2677 4.51364 7.68953 4.3208 8.60069 4.20992C9.55766 4.09421 10.8208 4.0918 12.7202 4.0918V0.476077ZM5.07174 10.2265C5.48394 8.37282 5.76114 7.14106 6.08415 6.23231C6.38787 5.36695 6.66749 4.99573 6.96639 4.75469L4.70535 1.93442C3.68331 2.75398 3.09997 3.8146 2.67331 5.02707C2.26353 6.19133 1.9357 7.67619 1.54038 9.44308L5.07174 10.2265ZM21.1135 6.76744C21.2292 7.23266 21.316 7.57977 21.4197 7.87867L24.8377 6.69272C24.7571 6.42849 24.6831 6.16157 24.6208 5.89243L21.1135 6.76744ZM29.1669 8.38729C28.6366 8.56325 28.4896 8.61146 28.3787 8.63798L29.2127 12.1573C29.5189 12.085 29.8563 11.9669 30.3095 11.8174L29.1669 8.38729ZM21.4197 7.87867C21.9581 9.4302 23.0534 10.7266 24.4932 11.5166C25.933 12.3067 27.6148 12.5365 29.2127 12.1573L28.3787 8.63798C27.6523 8.81071 26.8877 8.70519 26.233 8.34623C25.5783 7.98727 25.0803 7.39802 24.8353 6.69272L21.4197 7.87867ZM11.2378 5.92859C10.8424 9.8842 10.5821 12.2754 11.1269 14.5919L14.6462 13.7651C14.2726 12.1693 14.4172 10.4844 14.8366 6.29016L11.2378 5.92859ZM18.1462 20.3746C15.9045 16.8047 15.0222 15.3608 14.6462 13.7651L11.1269 14.5919C11.6717 16.9108 12.9709 18.9307 15.0873 22.2982L18.1462 20.3746ZM19.0188 28.5558L21.2895 32.1715L24.3532 30.248L22.0801 26.6322L19.0188 28.5558Z" fill="black"/>
<path d="M14.8366 6.29016L14.6868 7.78266L14.9866 4.79768L14.8366 6.29016ZM29.1669 8.38729L30.59 7.91294L27.7438 8.86133L29.1669 8.38729ZM18.3077 4.09904L16.8115 3.99202L19.8038 4.20704L18.3077 4.09904ZM20.9544 6.16723L20.4876 4.74173L21.4198 7.59322L20.9544 6.16723ZM6.96639 4.75469L5.79703 5.69416L8.13671 3.81642L6.96639 4.75469ZM13.036 6.10938L12.8861 7.60187L14.6868 7.78266L14.8366 6.29016L14.9865 4.79767L13.1858 4.61688L13.036 6.10938ZM3.30486 9.83358L2.97883 11.2977L4.7433 11.6906L5.06933 10.2265L5.39536 8.76235L3.63089 8.36944L3.30486 9.83358ZM4.33655 13.524L4.66258 12.0599L1.13363 11.2741L0.807597 12.7382L0.481566 14.2023L4.01051 14.9882L4.33655 13.524ZM29.7382 10.1011L31.1613 9.6268L30.59 7.91294L29.1669 8.38729L27.7439 8.86163L28.3152 10.5755L29.7382 10.1011ZM30.9266 7.80154L29.5036 8.27588L30.6461 11.7036L32.0692 11.2292L33.4922 10.7549L32.3496 7.3272L30.9266 7.80154ZM18.4379 2.29599L16.9418 2.18799L16.8116 3.99103L18.3077 4.09904L19.8038 4.20704L19.934 2.404L18.4379 2.29599ZM22.8684 6.32873L22.5045 4.87352L20.7497 5.31223L21.1135 6.76744L21.4773 8.22265L23.2322 7.78395L22.8684 6.32873ZM22.6755 5.60559L22.2102 4.1796L20.4891 4.74124L20.9544 6.16723L21.4198 7.59322L23.1409 7.03158L22.6755 5.60559ZM5.83346 3.34455L4.66411 4.28403L5.79703 5.69416L6.96639 4.75469L8.13574 3.81521L7.00281 2.40507L5.83346 3.34455ZM23.1263 7.28569L23.618 8.70282L25.327 8.10984L24.8353 6.69272L24.3436 5.27559L22.6346 5.86857L23.1263 7.28569ZM28.7909 10.3952L30.2509 10.0512L29.8363 8.29156L28.3763 8.63557L26.9163 8.97957L27.3309 10.7392L28.7909 10.3952ZM11.2378 5.92859L11.0878 7.42108L14.6867 7.78265L14.8366 6.29016L14.9866 4.79768L11.3877 4.43611L11.2378 5.92859ZM13.4193 4.0918H14.9193V0.476077H13.4193H11.9193V4.0918H13.4193ZM17.6858 4.0918H19.1858V0.476077H17.6858H16.1858V4.0918H17.6858ZM29.1669 8.38729L27.7438 8.86133L28.8864 12.2914L30.3095 11.8174L31.7326 11.3434L30.5901 7.91324L29.1669 8.38729ZM18.3077 4.09904L19.8039 4.20605L20.0618 0.599963L18.5656 0.49295L17.0695 0.385937L16.8115 3.99202L18.3077 4.09904ZM24.3918 5.04153L23.9249 3.61603L20.4876 4.74173L20.9544 6.16723L21.4213 7.59273L24.8586 6.46704L24.3918 5.04153ZM4.70535 1.93442L3.53502 2.87268L5.79606 5.69295L6.96639 4.75469L8.13671 3.81642L5.87568 0.996157L4.70535 1.93442ZM28.3787 8.63798L26.9191 8.98388L27.7532 12.5032L29.2127 12.1573L30.6723 11.8114L29.8383 8.29208L28.3787 8.63798ZM11.1269 14.5919L11.4699 16.0521L14.9892 15.2253L14.6462 13.7651L14.3031 12.3048L10.7838 13.1316L11.1269 14.5919ZM14.8366 6.29016L17.8217 6.58868L17.8219 6.58737L14.8366 6.29016ZM15.0849 22.2982L13.4888 19.758L10.9776 21.3359L12.5266 23.8651L15.0849 22.2982ZM16.9243 23.1371L17.4184 26.0962L16.9243 23.1371ZM21.2895 32.1715L18.7489 33.767L18.7583 33.7819L18.7678 33.7967L21.2895 32.1715ZM24.3508 30.248L26.9091 28.6811L25.3242 26.0933L22.7547 27.7078L24.3508 30.248ZM5.06933 10.2265L7.99789 10.8773L8.64883 7.94808L5.71949 7.29778L5.06933 10.2265ZM0.807597 12.7382L3.7266 13.4306L3.73148 13.4101L3.73606 13.3895L0.807597 12.7382ZM4.33655 13.524L1.40798 12.8732L1.40364 12.8928L1.39955 12.9124L4.33655 13.524ZM29.1669 8.38729L30.1117 11.2346L30.1145 11.2337L29.1669 8.38729ZM32.0692 11.2292L33.0202 14.0745L33.073 14.0569L33.1252 14.0372L32.0692 11.2292ZM30.9266 7.80154L30.0866 4.92154L30.0325 4.93731L29.9791 4.9551L30.9266 7.80154ZM18.3077 4.09904L18.0716 7.08973L18.0805 7.09043L18.0894 7.09108L18.3077 4.09904ZM21.1135 6.76744L20.3873 3.85666L17.4787 4.58232L18.2022 7.4915L21.1135 6.76744ZM20.9544 6.16723L18.1048 7.10529L18.1084 7.11591L20.9544 6.16723ZM6.96639 4.75469L5.09229 2.41206L5.08313 2.41945L6.96639 4.75469ZM24.8353 6.69272L27.6693 5.7085L26.6851 2.87475L23.8513 3.85869L24.8353 6.69272ZM22.0777 26.6322L23.6738 29.1724L26.2433 27.5579L24.5994 25.0071L22.0777 26.6322ZM19.0164 28.5558L16.4581 30.1227L18.043 32.7105L20.6125 31.096L19.0164 28.5558ZM11.621 2.10315L11.9211 -0.881799L8.93515 -1.182L8.63597 1.80409L11.621 2.10315ZM11.2378 5.92859L8.25271 5.62952L8.25264 5.63026L11.2378 5.92859ZM15.2175 2.46473L18.2027 2.76193L18.4996 -0.220422L15.5176 -0.520227L15.2175 2.46473ZM12.7178 0.476077V-2.52392H9.7178V0.476077H12.7178ZM12.7178 4.0918H9.7178V7.0918H12.7178V4.0918ZM1.54038 9.44308L-1.38724 8.78806L-1.38808 8.79183L1.54038 9.44308ZM30.3095 11.8174L31.2491 14.6665L31.2605 14.6627L30.3095 11.8174ZM18.5656 0.49295L18.7799 -2.49939L18.7725 -2.49992L18.7652 -2.50041L18.5656 0.49295ZM24.6208 5.89243L27.5434 5.2157L27.5375 5.19021L27.5312 5.16483L24.6208 5.89243ZM24.3918 5.04153L21.5408 5.97533L21.5429 5.98167L24.3918 5.04153ZM21.1135 6.76985L18.2031 7.49746L18.9308 10.4084L21.8416 9.68016L21.1135 6.76985ZM12.7202 0.476077H15.7202V-2.52392H12.7202V0.476077ZM8.1644 0.620707L7.80742 -2.35799L7.79853 -2.3569L8.1644 0.620707ZM4.70535 1.93442L6.58213 4.27487L6.58482 4.2727L4.70535 1.93442ZM8.60069 4.20992L8.2406 1.23161L8.23829 1.23189L8.60069 4.20992ZM12.7202 4.0918V7.0918H15.7202V4.0918H12.7202ZM5.07174 10.2265L4.42201 13.1553L7.34935 13.8047L8.00022 10.8777L5.07174 10.2265ZM6.08415 6.23231L8.91092 7.23705L8.91486 7.22582L6.08415 6.23231ZM2.67331 5.02707L5.50315 6.02308L5.50322 6.02288L2.67331 5.02707ZM21.4197 7.87867L18.5852 8.86158L18.5855 8.86232L21.4197 7.87867ZM24.8377 6.69272L25.8211 9.52696L28.5505 8.57994L27.707 5.81679L24.8377 6.69272ZM28.3787 8.63798L29.0728 11.5566L29.0764 11.5557L28.3787 8.63798ZM29.2127 12.1573L28.5231 9.23763L28.52 9.23836L29.2127 12.1573ZM11.1269 14.5919L14.0474 13.9058L14.0472 13.9051L11.1269 14.5919ZM14.6462 13.7651L11.7252 14.449L11.7262 14.4532L14.6462 13.7651ZM15.0873 22.2982L12.5473 23.8946L14.1441 26.4352L16.6843 24.8378L15.0873 22.2982ZM19.0188 28.5558L17.4227 26.0156L14.8832 27.6114L16.4782 30.1513L19.0188 28.5558ZM24.3532 30.248L25.9484 32.7887L28.4906 31.1926L26.893 28.6513L24.3532 30.248ZM22.0801 26.6322L24.6199 25.0356L23.0236 22.4963L20.484 24.0921L22.0801 26.6322ZM15.0849 22.2982L12.5266 23.8651C12.8588 24.4074 13.2953 24.8785 13.8108 25.251L15.5678 22.8193L17.3248 20.3877C17.4526 20.48 17.5608 20.5968 17.6432 20.7313L15.0849 22.2982ZM15.5678 22.8193L13.8108 25.251C14.3263 25.6235 14.9106 25.89 15.5299 26.0351L16.2142 23.1142L16.8985 20.1933C17.0521 20.2292 17.197 20.2953 17.3248 20.3877L15.5678 22.8193ZM16.2142 23.1142L15.5299 26.0351C16.1492 26.1802 16.7911 26.2009 17.4184 26.0962L16.9243 23.1371L16.4303 20.1781C16.5858 20.1521 16.7449 20.1573 16.8985 20.1933L16.2142 23.1142ZM16.9243 23.1371L17.4184 26.0962C18.0457 25.9914 18.646 25.7633 19.1845 25.4249L17.5884 22.8847L15.9923 20.3446C16.1259 20.2606 16.2747 20.2041 16.4303 20.1781L16.9243 23.1371ZM17.5884 22.8847L19.1845 25.4249C19.7231 25.0865 20.1891 24.6446 20.5557 24.1249L18.104 22.3959L15.6524 20.6669C15.7432 20.538 15.8588 20.4285 15.9923 20.3446L17.5884 22.8847ZM18.104 22.3959L20.5557 24.1249C20.9222 23.6051 21.182 23.0178 21.32 22.3969L18.3914 21.7461L15.4628 21.0954C15.497 20.9414 15.5615 20.7958 15.6524 20.6669L18.104 22.3959ZM18.3914 21.7461L21.32 22.3969C21.4579 21.776 21.4713 21.1339 21.3594 20.5079L18.4062 21.0358L15.4531 21.5638C15.4253 21.4085 15.4286 21.2493 15.4628 21.0954L18.3914 21.7461ZM18.4062 21.0358L21.3594 20.5079C21.2475 19.8818 21.0125 19.2841 20.6679 18.7495L18.1462 20.3746L15.6245 21.9998C15.5391 21.8672 15.4808 21.719 15.4531 21.5638L18.4062 21.0358ZM18.1462 20.3746L16.5501 17.8345L13.4888 19.758L15.0849 22.2982L16.681 24.8384L19.7423 22.9148L18.1462 20.3746ZM21.2895 32.1715L18.7678 33.7967C19.4534 34.8605 20.5307 35.611 21.7662 35.8856L22.4169 32.957L23.0677 30.0284C23.374 30.0965 23.6412 30.2826 23.8112 30.5464L21.2895 32.1715ZM22.4169 32.957L21.7662 35.8856C23.0016 36.1601 24.2955 35.9365 25.3671 35.2631L23.771 32.723L22.1749 30.1828C22.4406 30.0158 22.7614 29.9604 23.0677 30.0284L22.4169 32.957ZM23.771 32.723L25.3671 35.2631C26.4387 34.5898 27.2015 33.5211 27.4902 32.2889L24.5693 31.6046L21.6484 30.9203C21.72 30.6147 21.9091 30.3497 22.1749 30.1828L23.771 32.723ZM24.5693 31.6046L27.4902 32.2889C27.7789 31.0567 27.5701 29.7603 26.9091 28.6811L24.3508 30.248L21.7925 31.8148C21.6286 31.5472 21.5768 31.2258 21.6484 30.9203L24.5693 31.6046ZM24.3508 30.248L22.7547 27.7078L19.6934 29.6314L21.2895 32.1715L22.8856 34.7117L25.9469 32.7881L24.3508 30.248ZM0.807597 12.7382L-2.11141 12.0458C-2.25842 12.6656 -2.28081 13.3084 -2.17729 13.9369L0.782826 13.4493L3.74294 12.9617C3.76861 13.1175 3.76306 13.2769 3.7266 13.4306L0.807597 12.7382ZM0.782826 13.4493L-2.17729 13.9369C-2.07376 14.5653 -1.84639 15.167 -1.50837 15.7069L1.03435 14.1149L3.57708 12.5228C3.66089 12.6567 3.71727 12.8059 3.74294 12.9617L0.782826 13.4493ZM1.03435 14.1149L-1.50837 15.7069C-1.17035 16.2467 -0.728429 16.7141 -0.208268 17.0817L1.52322 14.6318L3.25471 12.1819C3.38369 12.2731 3.49326 12.389 3.57708 12.5228L1.03435 14.1149ZM1.52322 14.6318L-0.208268 17.0817C0.311898 17.4493 0.899924 17.7099 1.52164 17.8484L2.17371 14.9201L2.82577 11.9918C2.97992 12.0261 3.12572 12.0908 3.25471 12.1819L1.52322 14.6318ZM2.17371 14.9201L1.52164 17.8484C2.14338 17.9868 2.78642 18.0003 3.41342 17.8882L2.88505 14.9351L2.35669 11.982C2.51216 11.9541 2.6716 11.9575 2.82577 11.9918L2.17371 14.9201ZM2.88505 14.9351L3.41342 17.8882C4.04042 17.776 4.63888 17.5403 5.17404 17.1949L3.54709 14.6744L1.92014 12.1539C2.05283 12.0682 2.20122 12.0098 2.35669 11.982L2.88505 14.9351ZM3.54709 14.6744L5.17404 17.1949C5.70918 16.8495 6.17037 16.4011 6.53079 15.876L4.05726 14.1784L1.58372 12.4809C1.67309 12.3507 1.78745 12.2395 1.92014 12.1539L3.54709 14.6744ZM4.05726 14.1784L6.53079 15.876C6.89121 15.3508 7.14368 14.7592 7.27354 14.1356L4.33655 13.524L1.39955 12.9124C1.43175 12.7578 1.49435 12.6111 1.58372 12.4809L4.05726 14.1784ZM32.0692 11.2292L33.1252 14.0372C34.2891 13.5995 35.2382 12.7278 35.7731 11.6052L33.0649 10.3148L30.3566 9.02428C30.4892 8.74592 30.7246 8.52979 31.0132 8.42125L32.0692 11.2292ZM33.0649 10.3148L35.7731 11.6052C36.308 10.4826 36.3872 9.19644 35.9939 8.01671L33.1479 8.96539L30.3018 9.91407C30.2043 9.62155 30.224 9.30262 30.3566 9.02428L33.0649 10.3148ZM33.1479 8.96539L35.9939 8.01671C35.6007 6.83698 34.7657 5.85551 33.6642 5.27838L32.2718 7.93572L30.8795 10.5931C30.6064 10.45 30.3994 10.2066 30.3018 9.91407L33.1479 8.96539ZM32.2718 7.93572L33.6642 5.27838C32.5627 4.70125 31.2804 4.57335 30.0866 4.92154L30.9266 7.80154L31.7666 10.6815C31.4706 10.7679 31.1526 10.7362 30.8795 10.5931L32.2718 7.93572ZM22.0777 26.6322L24.5994 25.0071C23.9138 23.9433 22.8365 23.1927 21.601 22.9182L20.9503 25.8468L20.2995 28.7753C19.9932 28.7073 19.726 28.5212 19.556 28.2574L22.0777 26.6322ZM20.9503 25.8468L21.601 22.9182C20.3656 22.6437 19.0717 22.8673 18.0001 23.5407L19.5962 26.0808L21.1923 28.621C20.9266 28.7879 20.6058 28.8434 20.2995 28.7753L20.9503 25.8468ZM19.5962 26.0808L18.0001 23.5407C16.9286 24.214 16.1657 25.2827 15.877 26.5149L18.7979 27.1992L21.7188 27.8835C21.6472 28.1891 21.458 28.454 21.1923 28.621L19.5962 26.0808ZM18.7979 27.1992L15.877 26.5149C15.5883 27.7471 15.7971 29.0434 16.4581 30.1227L19.0164 28.5558L21.5747 26.9889C21.7386 27.2565 21.7904 27.578 21.7188 27.8835L18.7979 27.1992ZM19.0164 28.5558L20.6125 31.096L23.6738 29.1724L22.0777 26.6322L20.4816 24.0921L17.4203 26.0156L19.0164 28.5558ZM11.621 2.10315L8.63597 1.80409L8.25271 5.62952L11.2378 5.92859L14.2228 6.22766L14.6061 2.40222L11.621 2.10315ZM14.8366 6.29016L17.8219 6.58737L18.2027 2.76193L15.2175 2.46473L12.2322 2.16752L11.8514 5.99296L14.8366 6.29016ZM15.2175 2.46473L15.5176 -0.520227L11.9211 -0.881799L11.621 2.10315L11.3209 5.08811L14.9174 5.44968L15.2175 2.46473ZM13.4193 0.476077V-2.52392H12.7178V0.476077V3.47608H13.4193V0.476077ZM12.7178 0.476077H9.7178V4.0918H12.7178H15.7178V0.476077H12.7178ZM12.7178 4.0918V7.0918H13.4193V4.0918V1.0918H12.7178V4.0918ZM1.54038 9.44308L-1.38808 8.79183L-2.12086 12.087L0.807597 12.7382L3.73606 13.3895L4.46884 10.0943L1.54038 9.44308ZM4.33655 13.524L7.26511 14.1748L7.99789 10.8773L5.06933 10.2265L2.14077 9.57569L1.40798 12.8732L4.33655 13.524ZM5.06933 10.2265L5.71949 7.29778L2.19054 6.51438L1.54038 9.44308L0.890229 12.3718L4.41918 13.1552L5.06933 10.2265ZM13.4193 4.0918V7.0918H17.6858V4.0918V1.0918H13.4193V4.0918ZM17.6858 0.476077V-2.52392H13.4193V0.476077V3.47608H17.6858V0.476077ZM30.3095 11.8174L31.2605 14.6627L33.0202 14.0745L32.0692 11.2292L31.1181 8.38398L29.3585 8.97214L30.3095 11.8174ZM30.9266 7.80154L29.9791 4.9551L28.2194 5.54085L29.1669 8.38729L30.1145 11.2337L31.8741 10.648L30.9266 7.80154ZM17.6858 4.0918V7.0918C17.901 7.0918 18.0148 7.09184 18.0885 7.09256C18.1608 7.09327 18.1305 7.09438 18.0716 7.08973L18.3077 4.09904L18.5438 1.10834C18.2999 1.08909 18.0163 1.0918 17.6858 1.0918V4.0918ZM18.5656 0.49295L18.7652 -2.50041C18.3921 -2.52528 18.0138 -2.52392 17.6858 -2.52392V0.476077V3.47608C18.0713 3.47608 18.233 3.47743 18.3661 3.48631L18.5656 0.49295ZM24.6208 5.89243L27.5312 5.16483C27.4602 4.88075 27.3643 4.47618 27.2407 4.1014L24.3918 5.04153L21.5429 5.98167C21.5783 6.08898 21.6078 6.2099 21.7103 6.62004L24.6208 5.89243ZM20.9544 6.16723L18.1084 7.11591C18.0934 7.07103 18.0891 7.05013 18.1059 7.11367C18.1237 7.18126 18.1516 7.29146 18.2031 7.49746L21.1135 6.76985L24.0239 6.04224C23.9374 5.69603 23.8753 5.44311 23.8005 5.21855L20.9544 6.16723ZM21.1135 6.76985L21.8416 9.68016L25.3489 8.80274L24.6208 5.89243L23.8927 2.98212L20.3854 3.85954L21.1135 6.76985ZM18.3077 4.09904L18.0894 7.09108C18.0941 7.09143 18.0957 7.09214 18.0957 7.09215C18.0962 7.09234 18.097 7.09273 18.098 7.09354C18.0991 7.09435 18.1 7.09533 18.1008 7.09648C18.1014 7.09724 18.103 7.09957 18.1049 7.10529L20.9544 6.16723L23.804 5.22917C23.0417 2.91353 20.9636 1.28488 18.5261 1.10699L18.3077 4.09904ZM24.3918 5.04153L27.2427 4.10774C26.6476 2.29061 25.5249 0.691836 24.0177 -0.484848L22.1715 1.87983L20.3254 4.24451C20.8934 4.68797 21.3165 5.29051 21.5408 5.97533L24.3918 5.04153ZM22.1715 1.87983L24.0177 -0.484848C22.5105 -1.66153 20.6871 -2.36284 18.7799 -2.49939L18.5656 0.49295L18.3514 3.48529C19.0702 3.53675 19.7574 3.80105 20.3254 4.24451L22.1715 1.87983ZM12.7202 0.476077V-2.52392C10.9823 -2.52392 9.25322 -2.53125 7.80742 -2.35798L8.1644 0.620707L8.52137 3.59939C9.52945 3.47858 10.8424 3.47608 12.7202 3.47608V0.476077ZM8.1644 0.620707L7.79853 -2.3569C6.22605 -2.16368 4.44594 -1.70605 2.82588 -0.403867L4.70535 1.93442L6.58482 4.2727C7.00403 3.93575 7.55244 3.71846 8.53026 3.59831L8.1644 0.620707ZM6.96639 4.75469L8.84047 7.09729C8.79756 7.13162 8.7437 7.16906 8.68366 7.20259C8.62525 7.23522 8.58296 7.25186 8.56784 7.25729C8.55517 7.26183 8.57482 7.25373 8.63999 7.23958C8.70577 7.22529 8.80964 7.20662 8.9631 7.18795L8.60069 4.20992L8.23829 1.23189C7.01545 1.3807 5.98596 1.69715 5.0923 2.41208L6.96639 4.75469ZM8.60069 4.20992L8.96079 7.18823C9.69514 7.09944 10.7423 7.0918 12.7202 7.0918V4.0918V1.0918C10.8992 1.0918 9.42017 1.08899 8.2406 1.23161L8.60069 4.20992ZM12.7202 4.0918H15.7202V0.476077H12.7202H9.72021V4.0918H12.7202ZM5.07174 10.2265L8.00022 10.8777C8.42935 8.94784 8.66433 7.93075 8.9109 7.23705L6.08415 6.23231L3.2574 5.22758C2.85796 6.35138 2.53853 7.79781 2.14327 9.57529L5.07174 10.2265ZM6.08415 6.23231L8.91486 7.22582C8.96589 7.08044 9.00634 6.98326 9.03437 6.92223C9.06214 6.86176 9.07428 6.84428 9.06715 6.85562C9.05866 6.86913 9.03328 6.90695 8.98862 6.95725C8.94269 7.00899 8.89384 7.05428 8.84964 7.08992L6.96639 4.75469L5.08313 2.41945C4.19216 3.13797 3.66097 4.07764 3.25343 5.2388L6.08415 6.23231ZM4.70535 1.93442L2.82857 -0.406032C1.2092 0.89252 0.373365 2.52522 -0.156593 4.03126L2.67331 5.02707L5.50322 6.02288C5.82657 5.10397 6.15741 4.61545 6.58213 4.27487L4.70535 1.93442ZM2.67331 5.02707L-0.156524 4.03106C-0.639234 5.40253 -1.00798 7.09298 -1.38723 8.78806L1.54038 9.44308L4.468 10.0981C4.87939 8.25941 5.16629 6.98014 5.50315 6.02308L2.67331 5.02707ZM1.54038 9.44308L0.890652 12.3719L4.42201 13.1553L5.07174 10.2265L5.72148 7.29769L2.19012 6.51428L1.54038 9.44308ZM21.1135 6.76744L18.2022 7.4915C18.3079 7.91635 18.428 8.40826 18.5852 8.86158L21.4197 7.87867L24.2541 6.89577C24.204 6.75129 24.1506 6.54898 24.0248 6.04338L21.1135 6.76744ZM21.4197 7.87867L22.403 10.7129L25.8211 9.52696L24.8377 6.69272L23.8543 3.85847L20.4363 5.04443L21.4197 7.87867ZM24.8377 6.69272L27.707 5.81679C27.6412 5.60123 27.5867 5.40244 27.5434 5.2157L24.6208 5.89243L21.6981 6.56917C21.7795 6.92071 21.8729 7.25576 21.9684 7.56865L24.8377 6.69272ZM24.6208 5.89243L23.8946 2.98165L20.3873 3.85666L21.1135 6.76744L21.8397 9.67822L25.347 8.80321L24.6208 5.89243ZM29.1669 8.38729L28.2221 5.53994C27.9508 5.63 27.7997 5.67992 27.7023 5.71106C27.603 5.7428 27.6245 5.73376 27.681 5.72024L28.3787 8.63798L29.0764 11.5557C29.3485 11.4907 29.6656 11.3827 30.1117 11.2346L29.1669 8.38729ZM29.2127 12.1573L29.9024 15.0769C30.3732 14.9657 30.8925 14.7841 31.2491 14.6665L30.3095 11.8174L29.3699 8.96834C28.8202 9.14964 28.6646 9.20421 28.5231 9.23764L29.2127 12.1573ZM21.4197 7.87867L18.5855 8.86232C19.3677 11.116 20.9586 12.9991 23.05 14.1467L24.4932 11.5166L25.9364 8.88656C25.1482 8.45407 24.5486 7.74438 24.2538 6.89503L21.4197 7.87867ZM24.4932 11.5166L23.05 14.1467C25.1387 15.2928 27.5813 15.6278 29.9055 15.0762L29.2127 12.1573L28.52 9.23836C27.6483 9.44524 26.7273 9.32058 25.9364 8.88656L24.4932 11.5166ZM28.3787 8.63798L27.6847 5.71936C27.6883 5.7185 27.6843 5.72061 27.6753 5.71569L26.233 8.34623L24.7907 10.9768C26.0911 11.6898 27.6164 11.9029 29.0728 11.5566L28.3787 8.63798ZM26.233 8.34623L27.6753 5.71569C27.6725 5.71413 27.6703 5.71157 27.6693 5.7085L24.8353 6.69272L22.0013 7.67693C22.4902 9.08448 23.4842 10.2604 24.7907 10.9768L26.233 8.34623ZM24.8353 6.69272L23.8513 3.85869L20.4356 5.04464L21.4197 7.87867L22.4037 10.7127L25.8193 9.52675L24.8353 6.69272ZM11.2378 5.92859L8.25264 5.63026C7.87622 9.39668 7.52133 12.3649 8.20655 15.2787L11.1269 14.5919L14.0472 13.9051C13.6429 12.1859 13.8087 10.3717 14.2229 6.22692L11.2378 5.92859ZM14.6462 13.7651L17.5672 13.0812C17.334 12.0854 17.3817 10.9893 17.8217 6.58868L14.8366 6.29016L11.8515 5.99165C11.4527 9.97953 11.2111 12.2533 11.7252 14.449L14.6462 13.7651ZM18.1462 20.3746L20.6868 18.7792C18.3326 15.0303 17.8008 14.0727 17.5662 13.077L14.6462 13.7651L11.7262 14.4532C12.2436 16.649 13.4763 18.5791 15.6056 21.97L18.1462 20.3746ZM11.1269 14.5919L8.20639 15.278C8.89161 18.1947 10.5341 20.6914 12.5473 23.8946L15.0873 22.2982L17.6273 20.7018C15.4077 17.1701 14.4517 15.6268 14.0474 13.9058L11.1269 14.5919ZM15.0873 22.2982L16.6843 24.8378L19.7432 22.9142L18.1462 20.3746L16.5492 17.835L13.4903 19.7586L15.0873 22.2982ZM19.0188 28.5558L16.4782 30.1513L18.7489 33.767L21.2895 32.1715L23.83 30.5761L21.5594 26.9603L19.0188 28.5558ZM21.2895 32.1715L22.8847 34.7123L25.9484 32.7887L24.3532 30.248L22.758 27.7072L19.6943 29.6308L21.2895 32.1715ZM24.3532 30.248L26.893 28.6513L24.6199 25.0356L22.0801 26.6322L19.5403 28.2289L21.8134 31.8447L24.3532 30.248ZM22.0801 26.6322L20.484 24.0921L17.4227 26.0156L19.0188 28.5558L20.6149 31.096L23.6762 29.1724L22.0801 26.6322Z" fill="#FF7E00" mask="url(#path-1-inside-1_50_388)"/>
</svg>
