<svg width="58" height="58" viewBox="0 0 58 58" fill="none" xmlns="http://www.w3.org/2000/svg">
<path d="M54 54L41.9362 41.9362M41.9362 41.9362C43.9998 39.8727 45.6367 37.4229 46.7535 34.7267C47.8703 32.0306 48.4451 29.1408 48.4451 26.2225C48.4451 23.3042 47.8703 20.4145 46.7535 17.7183C45.6367 15.0222 43.9998 12.5724 41.9362 10.5088C39.8727 8.44528 37.4229 6.80838 34.7267 5.69159C32.0306 4.5748 29.1408 4 26.2225 4C23.3042 4 20.4145 4.5748 17.7183 5.69159C15.0222 6.80838 12.5724 8.44528 10.5088 10.5088C6.3413 14.6764 4 20.3288 4 26.2225C4 32.1163 6.3413 37.7687 10.5088 41.9362C14.6764 46.1038 20.3288 48.4451 26.2225 48.4451C32.1163 48.4451 37.7687 46.1038 41.9362 41.9362Z" stroke="#FF7E00" stroke-width="7" stroke-linecap="round" stroke-linejoin="round"/>
</svg>
