<svg width="21" height="20" viewBox="0 0 21 20" fill="none" xmlns="http://www.w3.org/2000/svg">
<path d="M12.0769 19H8.38462C4.90369 19 3.16277 19 2.08185 17.9182C1.00092 16.8363 1 15.0963 1 11.6154V9.76923C1 6.28831 1 4.54738 2.08185 3.46646C3.16369 2.38554 4.90369 2.38462 8.38462 2.38462H12.0769C15.5578 2.38462 17.2988 2.38462 18.3797 3.46646C19.4606 4.54831 19.4615 6.28831 19.4615 9.76923V11.6154C19.4615 15.0963 19.4615 16.8372 18.3797 17.9182C17.7769 18.5218 16.9692 18.7886 15.7692 18.9058M5.61538 2.38462V1M14.8462 2.38462V1M19 7H9.07692M1 7H4.57692" stroke="#FF7E00" stroke-width="1.5" stroke-linecap="round"/>
</svg>
