<svg width="18" height="18" viewBox="0 0 18 18" fill="none" xmlns="http://www.w3.org/2000/svg">
<path d="M17.7383 2.44862L15.5512 0.261703C15.3825 0.0940839 15.1544 0 14.9166 0C14.6789 0 14.4507 0.0940839 14.2821 0.261703L9.25984 5.2835C9.17642 5.3676 9.11043 5.46733 9.06564 5.57698C9.02085 5.68663 8.99814 5.80404 8.99883 5.92248V8.10039C8.99883 8.33908 9.09365 8.56799 9.26244 8.73676C9.43124 8.90554 9.66017 9.00036 9.89887 9.00036H12.077C12.1954 9.00104 12.3129 8.97834 12.4225 8.93355C12.5322 8.88877 12.6319 8.82278 12.716 8.73937L17.7383 3.71757C17.9059 3.54895 18 3.32085 18 3.08309C18 2.84533 17.9059 2.61724 17.7383 2.44862ZM11.699 7.20043H10.7989V6.30046L14.9211 2.17863L15.8212 3.07859L11.699 7.20043ZM15.2991 9.00036C15.0604 9.00036 14.8315 9.09517 14.6627 9.26395C14.4939 9.43273 14.3991 9.66163 14.3991 9.90032C14.3991 11.5711 13.7353 13.1735 12.5538 14.3549C11.3722 15.5363 9.76973 16.2001 8.09878 16.2001H3.06752L3.64355 15.6331C3.72791 15.5494 3.79487 15.4499 3.84057 15.3402C3.88626 15.2306 3.90979 15.1129 3.90979 14.9941C3.90979 14.8753 3.88626 14.7577 3.84057 14.648C3.79487 14.5383 3.72791 14.4388 3.64355 14.3551C2.76235 13.4741 2.16223 12.3516 1.91909 11.1295C1.67595 9.90737 1.80072 8.64063 2.27761 7.48945C2.75451 6.33826 3.56211 5.35434 4.59827 4.66213C5.63444 3.96991 6.85263 3.60048 8.09878 3.60057C8.33749 3.60057 8.56642 3.50575 8.73521 3.33698C8.904 3.1682 8.99883 2.93929 8.99883 2.70061C8.99883 2.46192 8.904 2.23301 8.73521 2.06424C8.56642 1.89546 8.33749 1.80064 8.09878 1.80064C6.57542 1.80565 5.08435 2.24008 3.79673 3.05406C2.50911 3.86804 1.47713 5.02857 0.819271 6.40244C0.161407 7.77631 -0.0956798 9.30783 0.0775218 10.8212C0.250723 12.3345 0.847193 13.7684 1.79846 14.9581L0.259381 16.4611C0.134493 16.5876 0.0498918 16.7483 0.0162533 16.9229C-0.0173851 17.0975 0.00144628 17.2781 0.0703713 17.442C0.137893 17.6064 0.252557 17.7471 0.399913 17.8464C0.547268 17.9457 0.720722 17.9991 0.898414 18H8.09878C9.16254 18 10.2159 17.7905 11.1987 17.3834C12.1815 16.9764 13.0744 16.3798 13.8266 15.6277C14.5788 14.8755 15.1755 13.9826 15.5826 12.9999C15.9897 12.0172 16.1992 10.964 16.1992 9.90032C16.1992 9.66163 16.1044 9.43273 15.9356 9.26395C15.7668 9.09517 15.5379 9.00036 15.2991 9.00036Z" fill="#FF7E00"/>
</svg>
