<svg width="57" height="51" viewBox="0 0 57 51" fill="none" xmlns="http://www.w3.org/2000/svg">
<path d="M51.3001 51C52.8118 51 54.2616 50.403 55.3305 49.3403C56.3995 48.2776 57 46.8362 57 45.3333V31.4953C57 29.9924 56.3995 28.5511 55.3305 27.4884C54.2616 26.4257 52.8118 25.8287 51.3001 25.8287H43.3887C43.3887 23.8378 43.5064 21.8469 43.742 19.856C44.0954 17.748 44.6844 15.8742 45.509 14.2347C46.3336 12.5951 47.3957 11.305 48.6953 10.3643C49.9872 9.31033 51.6364 8.78333 53.6428 8.78333V0C50.3444 0 47.4565 0.702667 44.9789 2.108C42.5185 3.49562 40.4046 5.41708 38.7945 7.72933C37.1735 10.2745 35.98 13.065 35.2606 15.9913C34.5332 19.2199 34.1775 22.5202 34.2004 25.8287V45.3333C34.2004 46.8362 34.8009 48.2776 35.8699 49.3403C36.9388 50.403 38.3886 51 39.9003 51H51.3001ZM17.1007 51C18.6124 51 20.0622 50.403 21.1312 49.3403C22.2001 48.2776 22.8006 46.8362 22.8006 45.3333V31.4953C22.8006 29.9924 22.2001 28.5511 21.1312 27.4884C20.0622 26.4257 18.6124 25.8287 17.1007 25.8287H9.18927C9.18927 23.8378 9.30707 21.8469 9.54266 19.856C9.89986 17.748 10.4888 15.8742 11.3096 14.2347C12.1342 12.5951 13.1963 11.305 14.4959 10.3643C15.7879 9.31033 17.437 8.78333 19.4434 8.78333V0C16.145 0 13.2571 0.702667 10.7795 2.108C8.31914 3.49562 6.20522 5.41708 4.59516 7.72933C2.97417 10.2745 1.78059 13.065 1.06122 15.9913C0.333819 19.2199 -0.0218606 22.5202 0.00103906 25.8287V45.3333C0.00103906 46.8362 0.601562 48.2776 1.6705 49.3403C2.73944 50.403 4.18923 51 5.70094 51H17.1007Z" fill="#FF7E00"/>
</svg>
